<svg xmlns="http://www.w3.org/2000/svg" height="1024" width="1024" xmlnsV="https://vecta.io/nano"><path d="M75.094 306.009c0-27.5 19.413-61.375 43.14-75.277L468.861 25.286c23.727-13.902 62.553-13.902 86.28 0l350.625 205.445c23.729 13.902 43.141 47.777 43.141 75.277v412c0 27.5-19.412 61.375-43.141 75.277L555.141 998.731c-23.727 13.901-62.553 13.901-86.28 0L118.234 793.286c-23.727-13.902-43.14-47.777-43.14-75.277v-412z" fill="#3b5998"/><g fill="#fff"><path d="M938.094 262.262s-1.045-2.021-3.289-5.308c-1.818-2.664-3.744-5.561-6.111-8.186-5-5.546-6.697-6.941-7.377-7.551-2.637-2.356-5.848-4.802-8.945-6.617L549.483 21.969s-6.123-3.544-11.67-5.322-9.457-2.56-13.51-3.128-9.672-.854-13.298-.854-12.089.711-15.716 1.564-6.275 1.511-7.235 1.831l-4.08 1.387c-.905.293-5.093 2.16-5.333 2.293s-1.643.776-2.431 1.239L124.593 227.004s-14.796 8.097-20.628 13.074c-2.496 2.131-5.265 4.867-7.658 7.582-3.196 3.627-5.807 7.203-7.027 9.093-.922 1.43-2.28 3.533-3.493 5.707-1.577 2.825-3.032 5.837-3.667 7.147-1.162 2.398-3.293 8.053-3.827 9.76s-1.547 5.533-1.707 6.436l-.747 3.911c-.054.391-.44 2.92-.533 4.267l-.212 2.969-.001 429.512.427 5.635c.028.203.453 3.433.782 4.837.213.91.64 2.986.925 3.981l.96 3.342 1.209 3.591c.249.675 1.25 3.248 1.529 3.912.286.681 1.813 4.018 1.92 4.23s855.249-493.728 855.249-493.728z" opacity=".2"/><path d="M649.174 335.915v-86.827c-3.188 0-6.377-.006-9.564 0-7.678.017-15.355-.019-23.033.001-9.361.024-18.725-.039-28.086.001-8.25.036-16.502-.083-24.75.002-12.451.129-24.271.741-36.213 4.586-11.516 3.708-22.323 10.202-31.53 17.989-5.331 4.509-10.266 9.338-14.736 14.707a85.63 85.63 0 0 0-5.07 6.946c-4.727 7.194-8.458 15.106-11.577 23.497l-2.046 5.685c-4.809 13.93-4.967 29.135-4.967 43.773v5.656 67.662H374.83v95.573h79.787 2.133v239.787h94.72v-241.92l85.973 1.16 11.592-93.974-97.137-.2v-72.533s-.215-30.933 26.025-31.36l71.251-.211z"/></g></svg>
