<svg xmlns="http://www.w3.org/2000/svg" height="1024" width="1024" xmlnsV="https://vecta.io/nano"><path d="M75.094 306.008c0-27.5 19.413-61.375 43.14-75.277L468.861 25.286c23.727-13.902 62.553-13.902 86.28 0l350.625 205.445c23.729 13.902 43.141 47.777 43.141 75.277v412c0 27.5-19.412 61.375-43.141 75.277L555.141 998.731c-23.727 13.901-62.553 13.901-86.28 0L118.234 793.286c-23.727-13.902-43.14-47.777-43.14-75.277V306.008z" fill="#4e5052"/><path d="M938.094 262.262s-1.045-2.021-3.289-5.308c-1.818-2.664-3.746-5.56-6.111-8.186-5-5.547-6.697-6.942-7.379-7.551-2.637-2.356-5.846-4.802-8.943-6.617L549.481 21.969s-6.121-3.544-11.668-5.322-9.459-2.56-13.512-3.128-9.67-.854-13.297-.854-12.089.711-15.716 1.564-6.275 1.511-7.235 1.831l-4.08 1.387c-.906.293-5.094 2.16-5.333 2.293s-1.643.776-2.431 1.238L124.592 227.003s-14.797 8.097-20.628 13.074c-2.496 2.131-5.266 4.867-7.658 7.582-3.196 3.627-5.807 7.203-7.027 9.093-.922 1.43-2.28 3.534-3.493 5.707-1.577 2.825-3.032 5.836-3.667 7.146-1.162 2.399-3.293 8.053-3.827 9.76s-1.546 5.533-1.707 6.435l-.747 3.911c-.053.392-.44 2.92-.533 4.267l-.213 2.969v429.511l.426 5.635c.028.202.454 3.433.782 4.836.213.91.64 2.987.925 3.982l.96 3.342 1.208 3.591c.25.675 1.25 3.248 1.529 3.912.286.68 1.813 4.018 1.92 4.23s855.252-493.724 855.252-493.724z" fill="#fff" opacity=".2"/><circle cx="366.507" cy="513.502" fill="#3a58a7" r="119.467"/><circle cx="657.495" cy="510.515" fill="#ff0084" r="119.467"/></svg>
