<svg xmlns="http://www.w3.org/2000/svg" height="1024" width="1024" xmlnsV="https://vecta.io/nano"><linearGradient gradientTransform="matrix(0 1 1 0 214.3433 91.0386)" gradientUnits="userSpaceOnUse" id="A" x1="804.693" x2="37.247" y1="519.2" y2="76.115"><stop offset="0" stop-color="#20254c"/><stop offset=".057" stop-color="#29254d"/><stop offset=".15" stop-color="#41234f"/><stop offset=".268" stop-color="#692152"/><stop offset=".404" stop-color="#a01f57"/><stop offset=".533" stop-color="#da1c5c"/><stop offset=".592" stop-color="#dc255a"/><stop offset=".689" stop-color="#e13d56"/><stop offset=".811" stop-color="#ea654e"/><stop offset=".952" stop-color="#f69c44"/><stop offset="1" stop-color="#fbb040"/></linearGradient><path d="M75.094 306.009c0-27.5 19.413-61.375 43.14-75.277L468.861 25.286c23.727-13.902 62.553-13.902 86.28 0l350.625 205.445c23.729 13.902 43.141 47.777 43.141 75.277v412c0 27.5-19.412 61.375-43.141 75.277L555.141 998.731c-23.727 13.901-62.553 13.901-86.28 0L118.234 793.286c-23.727-13.902-43.14-47.777-43.14-75.277v-412z" fill="url(#A)"/><g fill="#fff"><path d="M938.092 262.262s-1.043-2.021-3.287-5.308c-1.818-2.664-3.746-5.561-6.111-8.186-5-5.546-6.697-6.941-7.377-7.551-2.637-2.355-5.848-4.801-8.945-6.617L549.483 21.969s-6.123-3.544-11.67-5.321-9.457-2.56-13.51-3.129-9.672-.854-13.297-.854-12.089.711-15.716 1.565-6.276 1.511-7.236 1.831l-4.08 1.387c-.907.293-5.094 2.16-5.333 2.293s-1.643.776-2.431 1.238L124.594 227.004s-14.797 8.097-20.628 13.074c-2.497 2.131-5.266 4.867-7.658 7.582-3.196 3.627-5.807 7.203-7.026 9.093-.923 1.43-2.28 3.533-3.494 5.707-1.577 2.825-3.032 5.837-3.667 7.147-1.162 2.398-3.293 8.053-3.827 9.76s-1.547 5.534-1.707 6.436l-.747 3.911c-.053.391-.44 2.92-.533 4.267l-.212 2.969-.001 429.511.427 5.636c.028.202.453 3.432.782 4.836.213.91.64 2.986.924 3.982l.96 3.342 1.209 3.591a177.92 177.92 0 0 0 1.529 3.911c.286.682 1.813 4.019 1.92 4.231s855.247-493.728 855.247-493.728z" opacity=".2"/><circle cx="637.239" cy="386.196" r="28.276"/></g><g fill="none" stroke="#fff" stroke-width="45"><circle cx="512.001" cy="512.009" r="103.605"/><path d="M295.933 573.574c0 91.127 73.873 165 165 165h102.136c91.127 0 165-73.873 165-165v-123.13c0-91.127-73.873-165-165-165H460.933c-91.127 0-165 73.873-165 165v123.13z" stroke-miterlimit="10"/></g></svg>
