<svg xmlns="http://www.w3.org/2000/svg" height="1024" width="1024" xmlnsV="https://vecta.io/nano"><path d="M75.094 306.009c0-27.5 19.413-61.375 43.14-75.277L468.861 25.286c23.727-13.902 62.553-13.902 86.28 0l350.625 205.445c23.729 13.902 43.141 47.777 43.141 75.277v412c0 27.5-19.412 61.375-43.141 75.277L555.141 998.731c-23.727 13.901-62.553 13.901-86.28 0L118.234 793.286c-23.727-13.902-43.14-47.777-43.14-75.277v-412z" fill="#bd081c"/><g fill="#fff"><path d="M938.092 262.262s-1.043-2.021-3.287-5.308c-1.818-2.664-3.744-5.561-6.111-8.186-5-5.546-6.697-6.941-7.377-7.551-2.637-2.355-5.848-4.801-8.945-6.617L549.483 21.97s-6.123-3.544-11.67-5.321-9.457-2.56-13.512-3.129-9.67-.854-13.296-.854-12.089.711-15.716 1.565-6.276 1.511-7.236 1.831l-4.08 1.387c-.906.293-5.094 2.16-5.333 2.293s-1.643.776-2.431 1.238L124.593 227.005s-14.797 8.097-20.628 13.074c-2.497 2.131-5.266 4.867-7.658 7.582-3.196 3.627-5.807 7.203-7.026 9.093-.923 1.43-2.28 3.533-3.494 5.707-1.577 2.825-3.032 5.837-3.667 7.147-1.162 2.398-3.293 8.053-3.827 9.76s-1.547 5.534-1.707 6.436l-.747 3.911c-.053.391-.44 2.92-.533 4.267l-.212 2.969-.001 429.511.427 5.635c.028.203.454 3.433.782 4.836.213.91.64 2.987.924 3.982l.96 3.342 1.209 3.591a182.01 182.01 0 0 0 1.529 3.912c.286.681 1.813 4.018 1.92 4.23s855.248-493.728 855.248-493.728z" opacity=".2"/><path d="M673.891 384.523c-5.811-19.109-16.51-36.487-29.973-51.155-14.475-15.77-30.723-24.829-49.625-34.28 0 0-55.076-27.538-129.695-7.106-23.599 6.461-44.706 19.742-64.024 34.418-20.063 15.239-34.512 34.501-44.415 57.644-2.686 6.274-5.044 12.751-7.071 19.269-2.069 6.655-3.573 13.497-4.302 20.434-2.092 19.918-1.304 39.932 4.206 59.219 4.74 16.599 11.221 32.574 22.097 46.193 6.05 7.575 14.752 14.065 24.007 17.232l.995.327c2.772 1.098 5.438 1.985 8.448-.429.273-.256.511-.546.718-.854.623-.923.978-2.003 1.244-2.834.079-.377.151-.726.227-1.003 1.063-3.906 1.738-7.903 2.611-11.854l3.137-15.272c.052-.264.814-2.864.601-3.076-.003-.003-36.124-35.831-13.028-100.972 0 0 15.397-45.008 53.891-66.327 16.775-9.292 34.572-15.977 54.052-16.096 15.44-.094 30.952 2.156 45.68 6.739 14.594 4.542 28.594 12.193 39.855 22.579 3.758 3.466 7.115 7.347 10.098 11.506s5.588 8.597 7.842 13.174c3.787 8.839 6.348 18.226 7.922 27.463 1.012 5.848 1.818 12.543 2.17 20.001.701 14.915-.418 32.878-5.354 53.211 0 0-10.066 42.047-31.387 63.366-16.715 16.714-43.361 29.881-65.5 14.379-4.58-3.208-10.277-8.586-12.754-13.686-5.07-10.448-6.177-19.257-4.467-30.646 1.239-8.257 2.823-16.563 6.166-24.263 9.323-21.472 18.122-43.806 17.778-67.613-.096-6.563-1.373-13.354-3.951-19.423-2.396-5.635-5.588-10.315-10.299-14.277-3.587-3.017-7.717-4.979-12.25-6.145 0 0-17.174-7.107-33.164 7.699 0 0-40.863 40.86-16.582 101.267l-34.94 155.751c-4.634 20.639-3.412 41.023-1.388 61.905a652.61 652.61 0 0 0 2.077 17.771c.547 3.873 1.42 14.705 6.86 9.375 2.354-2.306 35.532-53.076 42.194-74.396s20.875-82.612 20.875-82.612 14.213 37.31 78.617 31.535c0 0 74.617-6.218 103.488-95.493 2.57-7.95 4.701-15.968 6.525-24.134 1.822-8.154 3.223-16.396 4.225-24.685 3.339-27.632 3.725-56.974-4.437-83.826z"/></g></svg>
