<svg xmlns="http://www.w3.org/2000/svg" height="1024" width="1024" xmlnsV="https://vecta.io/nano"><path d="M75.094 306.009c0-27.5 19.413-61.375 43.14-75.277L468.861 25.286c23.727-13.902 62.553-13.902 86.28 0l350.625 205.445c23.729 13.902 43.141 47.777 43.141 75.277v412c0 27.5-19.412 61.375-43.141 75.277L555.141 998.731c-23.727 13.901-62.553 13.901-86.28 0L118.234 793.286c-23.727-13.902-43.14-47.777-43.14-75.277v-412z" fill="#00aced"/><g fill="#fff"><path d="M938.092 262.262s-1.043-2.021-3.287-5.308c-1.818-2.663-3.744-5.561-6.111-8.186-5-5.547-6.697-6.941-7.377-7.551-2.637-2.355-5.848-4.802-8.945-6.617L549.483 21.969s-6.123-3.544-11.67-5.321-9.457-2.56-13.51-3.129-9.672-.854-13.297-.854-12.089.712-15.716 1.565-6.276 1.511-7.236 1.83l-4.08 1.387c-.907.294-5.094 2.16-5.333 2.294s-1.643.776-2.431 1.238L124.594 227.004s-14.797 8.097-20.628 13.074c-2.497 2.131-5.266 4.866-7.658 7.582-3.196 3.627-5.807 7.202-7.026 9.093-.923 1.431-2.28 3.533-3.494 5.707-1.577 2.825-3.032 5.837-3.667 7.146-1.162 2.398-3.293 8.054-3.827 9.76s-1.547 5.534-1.707 6.436l-.747 3.911c-.053.392-.44 2.92-.533 4.267l-.212 2.969-.001 429.512.427 5.635c.028.203.453 3.433.782 4.837.213.91.64 2.986.924 3.981l.96 3.342 1.209 3.592c.249.675 1.25 3.247 1.529 3.911a225.59 225.59 0 0 0 1.92 4.23c.106.214 855.247-493.727 855.247-493.727z" opacity=".2"/><path d="M709.11 375.06s44.955-37.835 43.529-54.719c0 0-51.869 22.782-63.262 23.8 0 0-3.605-3.63-9.512-8.401a150.5 150.5 0 0 0-6.623-5.062 92.9 92.9 0 0 0-14.166-8.507c-2.461-1.196-4.969-2.286-7.508-3.277-16.537-7.246-34.654-9.021-52.438-7.075-2.541.277-5.074.632-7.596 1.057-29.496 4.617-54.721 22.518-70.594 46.924a84.26 84.26 0 0 0-3.949 6.854c-2.406 4.687-4.342 9.604-5.705 14.736-.535 1.895-1.12 4.101-1.672 6.455s-1.074 4.86-1.481 7.353c-1.627 9.968 0 42.311 0 42.311s-131.203 4.068-215.417-104.962c0 0-41.496 78.519 30.105 133.44 0 0-14.563 6.51-42.065-9.765 0 0-13.67 59.804 75.019 100.894H312.65s15.053 66.313 95.198 72.417c0 0-37.835 50.853-147.68 43.123 0 0 99.105 68.911 226.787 36.929l6.867-1.811c20.208-6.233 40.549-13.557 59.026-23.375l4.84-2.566a340.45 340.45 0 0 0 14.59-8.378s134.248-72.739 145.23-260.684c0 0 28.211-16.556 46.316-48.288.005-.001-50.851 11.797-54.714 10.577z"/></g></svg>
