<svg xmlns="http://www.w3.org/2000/svg" height="1024" width="1024" xmlnsV="https://vecta.io/nano"><path d="M75.094 306.009c0-27.5 19.413-61.375 43.14-75.277L468.861 25.286c23.727-13.902 62.553-13.902 86.28 0l350.625 205.445c23.729 13.902 43.141 47.777 43.141 75.277v412c0 27.5-19.412 61.375-43.141 75.277L555.141 998.731c-23.727 13.901-62.553 13.901-86.28 0L118.234 793.286c-23.727-13.902-43.14-47.777-43.14-75.277v-412z" fill="#09d261"/><g fill="#fff"><path d="M938.092 262.262s-1.043-2.021-3.287-5.308c-1.818-2.664-3.744-5.561-6.111-8.186-5-5.546-6.697-6.941-7.377-7.551-2.637-2.355-5.848-4.801-8.945-6.617L549.483 21.97s-6.123-3.544-11.67-5.321-9.457-2.56-13.512-3.129-9.67-.854-13.296-.854-12.089.711-15.716 1.565-6.276 1.511-7.236 1.831l-4.08 1.387c-.906.293-5.094 2.16-5.333 2.293s-1.643.776-2.431 1.238L124.593 227.005s-14.797 8.097-20.628 13.074c-2.497 2.131-5.266 4.867-7.658 7.582-3.196 3.627-5.807 7.203-7.026 9.093-.923 1.43-2.28 3.533-3.494 5.707-1.577 2.825-3.032 5.837-3.667 7.147-1.162 2.398-3.293 8.053-3.827 9.76s-1.547 5.534-1.707 6.436l-.747 3.911c-.053.391-.44 2.92-.533 4.267l-.212 2.969-.001 429.511.427 5.635c.028.203.454 3.433.782 4.836.213.91.64 2.987.924 3.982l.96 3.342 1.209 3.591a182.01 182.01 0 0 0 1.529 3.912c.286.681 1.813 4.018 1.92 4.23s855.248-493.728 855.248-493.728z" opacity=".2"/><path d="M694.342 328.962c-47.506-48.904-113.182-75.452-180.248-75.452-142.526 0-257.101 115.972-255.702 257.101 0 44.708 12.575 88.035 33.534 127.154l-36.331 132.743 135.54-34.934c37.723 20.961 79.643 30.744 121.561 30.744h0c141.127 0 255.709-115.974 255.709-257.106.002-68.466-26.553-132.743-74.063-180.25zM514.096 722.995h0c-37.729 0-75.455-9.771-107.596-29.338l-8.378-4.189-81.046 20.959 20.958-79.646-5.586-8.379c-61.48-99.216-32.136-230.56 68.465-292.039 100.608-61.48 230.552-32.136 292.033 68.465 61.486 100.608 32.143 230.56-68.465 292.032-32.137 20.958-71.266 32.135-110.385 32.135zM637.053 567.9l-15.365-6.985s-22.357-9.785-36.332-16.771c-1.396 0-2.795-1.391-4.195-1.391-4.188 0-6.986 1.391-9.775 2.796h0s-1.4 1.394-20.961 23.745c-1.396 2.796-4.195 4.202-6.986 4.202h-1.396c-1.4 0-4.191-1.405-5.588-2.797l-6.986-2.798h0c-15.373-6.985-29.347-15.363-40.522-26.553-2.797-2.784-6.986-5.582-9.784-8.379-9.783-9.782-19.562-20.959-26.546-33.531l-1.399-2.8c-1.397-1.397-1.397-2.79-2.796-5.587 0-2.797 0-5.587 1.398-6.985 0 0 5.589-6.987 9.783-11.177 2.791-2.798 4.191-6.986 6.987-9.783 2.79-4.188 4.188-9.784 2.79-13.973-1.391-6.987-18.163-44.717-22.352-53.095-2.797-4.196-5.596-5.595-9.782-6.987h-4.189-11.183c-2.792 0-5.588 1.392-8.385 1.392l-1.393 1.399c-2.797 1.398-5.596 4.196-8.386 5.587-2.797 2.798-4.196 5.596-6.986 8.386-9.784 12.574-15.372 27.946-15.372 43.318h0c0 11.174 2.797 22.357 6.985 32.135l1.399 4.195c12.574 26.547 29.344 50.302 51.694 71.262l5.597 5.582c4.188 4.202 8.379 6.988 11.176 11.189 29.344 25.15 62.877 43.31 100.608 53.093 4.188 1.394 9.775 1.394 13.971 2.798h0 13.975c6.986 0 15.365-2.798 20.959-5.593 4.188-2.799 6.988-2.799 9.777-5.597l2.799-2.783c2.787-2.797 5.586-4.203 8.383-6.986 2.791-2.798 5.588-5.595 6.986-8.392 2.791-5.582 4.189-12.568 5.588-19.555v-9.783c.001 0-1.397-1.405-4.196-2.798z"/></g></svg>
