<svg xmlns="http://www.w3.org/2000/svg" height="1024" width="1024" xmlnsV="https://vecta.io/nano"><path d="M75.094 306.009c0-27.5 19.413-61.375 43.14-75.277L468.861 25.286c23.727-13.902 62.553-13.902 86.28 0l350.625 205.445c23.729 13.902 43.141 47.777 43.141 75.277v412c0 27.5-19.412 61.375-43.141 75.277L555.141 998.731c-23.727 13.901-62.553 13.901-86.28 0L118.234 793.286c-23.727-13.902-43.14-47.777-43.14-75.277v-412z" fill="#c12025"/><g fill="#fff"><path d="M938.092 262.262s-1.043-2.021-3.287-5.308c-1.818-2.664-3.744-5.561-6.111-8.186-5-5.546-6.697-6.941-7.377-7.551-2.637-2.355-5.848-4.801-8.945-6.617L549.483 21.969s-6.123-3.544-11.67-5.321-9.457-2.56-13.51-3.129-9.672-.854-13.298-.854-12.089.711-15.716 1.565-6.275 1.511-7.235 1.831l-4.08 1.387c-.905.293-5.093 2.16-5.333 2.293s-1.643.776-2.431 1.238L124.593 227.004s-14.797 8.097-20.628 13.074c-2.497 2.131-5.266 4.867-7.658 7.582-3.196 3.627-5.807 7.203-7.026 9.093-.923 1.43-2.28 3.533-3.494 5.707-1.577 2.825-3.032 5.837-3.667 7.147-1.162 2.398-3.293 8.053-3.827 9.76s-1.547 5.534-1.707 6.436l-.747 3.911c-.053.391-.44 2.92-.533 4.267l-.212 2.969-.001 429.511.427 5.635c.028.203.453 3.433.782 4.836.213.91.64 2.987.924 3.982l.96 3.342 1.209 3.591c.249.675 1.25 3.248 1.529 3.912.286.68 1.813 4.018 1.92 4.23s855.248-493.727 855.248-493.727z" opacity=".2"/><path d="M609.204 330.959c-49.51-1.458-99.046-1.802-148.57-1.032-140.201 2.669-199.034.516-206.096 108.368a2205.18 2205.18 0 0 0-.331 136.762c6.996 117.597 44.721 115.437 206.427 119.104 45.16.703 90.33.479 135.484-.672 113.748-3.132 166.652-.367 173.678-118.493a2204.71 2204.71 0 0 0-.334-136.699c-7.034-108.289-68.038-104.71-160.258-107.338zM459.443 579.29l.074-146.714 137.329 73.378-137.403 73.336z"/></g></svg>
